<svg width="60" height="58" viewBox="0 0 60 58" fill="none" xmlns="http://www.w3.org/2000/svg">
<ellipse cx="30.0005" cy="29" rx="30" ry="29" fill="white"/>
<path d="M31.0005 28C31.0005 26.8954 31.8959 26 33.0005 26H41.0005C42.1051 26 43.0005 26.8954 43.0005 28V43C43.0005 44.1046 42.1051 45 41.0005 45H33.0005C31.8959 45 31.0005 44.1046 31.0005 43V28Z" fill="url(#paint0_linear_5_844)"/>
<path d="M13.0005 18C13.0005 16.8954 13.8959 16 15.0005 16H32.9116C34.0162 16 34.9116 16.8954 34.9116 18V43.0081C34.9116 44.1082 34.0198 45 32.9197 45V45C21.9186 45 13.0005 36.0819 13.0005 25.0808V18Z" fill="url(#paint1_linear_5_844)"/>
<path d="M20.0005 22C20.0005 21.4477 20.4482 21 21.0005 21H30.0005C30.5528 21 31.0005 21.4477 31.0005 22V22C31.0005 22.5523 30.5528 23 30.0005 23H21.0005C20.4482 23 20.0005 22.5523 20.0005 22V22Z" fill="white"/>
<path d="M20.0005 28C20.0005 27.4477 20.4482 27 21.0005 27H30.0005C30.5528 27 31.0005 27.4477 31.0005 28V28C31.0005 28.5523 30.5528 29 30.0005 29H21.0005C20.4482 29 20.0005 28.5523 20.0005 28V28Z" fill="white"/>
<path d="M20.0005 34C20.0005 33.4477 20.4482 33 21.0005 33H30.0005C30.5528 33 31.0005 33.4477 31.0005 34V34C31.0005 34.5523 30.5528 35 30.0005 35H21.0005C20.4482 35 20.0005 34.5523 20.0005 34V34Z" fill="white"/>
<defs>
<linearGradient id="paint0_linear_5_844" x1="37.0005" y1="26" x2="37.0005" y2="45" gradientUnits="userSpaceOnUse">
<stop stop-color="#FF8989"/>
<stop offset="1" stop-color="#FF6969"/>
</linearGradient>
<linearGradient id="paint1_linear_5_844" x1="23.956" y1="16" x2="23.956" y2="45" gradientUnits="userSpaceOnUse">
<stop stop-color="#4647FF"/>
<stop offset="1" stop-color="#9899FF"/>
</linearGradient>
</defs>
</svg>
