<svg width="60" height="57" viewBox="0 0 60 57" fill="none" xmlns="http://www.w3.org/2000/svg">
<ellipse cx="30.0005" cy="28.5" rx="30" ry="28.5" fill="white"/>
<rect x="17.0005" y="18" width="25" height="25" rx="2" fill="url(#paint0_linear_5_855)"/>
<path d="M42.0005 26V19.7895C42.0005 18.6849 41.1051 17.7895 40.0005 17.7895H38.9517V15C38.9517 14.4477 38.504 14 37.9517 14H37.5127C36.9604 14 36.5127 14.4477 36.5127 15V17.7895H22.4883V15C22.4883 14.4477 22.0406 14 21.4883 14H21.0493C20.497 14 20.0493 14.4477 20.0493 15V17.7895H19.0005C17.8959 17.7895 17.0005 18.6849 17.0005 19.7895V26H42.0005Z" fill="url(#paint1_linear_5_855)"/>
<rect x="21.0005" y="29" width="3" height="3" fill="white"/>
<rect x="21.0005" y="36" width="3" height="3" fill="white"/>
<rect x="28.0005" y="29" width="3" height="3" fill="white"/>
<rect x="28.0005" y="36" width="3" height="3" fill="white"/>
<rect x="35.0005" y="29" width="3" height="3" fill="white"/>
<rect x="35.0005" y="36" width="3" height="3" fill="white"/>
<defs>
<linearGradient id="paint0_linear_5_855" x1="17.0005" y1="25.5" x2="42.0005" y2="45" gradientUnits="userSpaceOnUse">
<stop stop-color="#8889FF"/>
<stop offset="1" stop-color="#3C3DFF"/>
</linearGradient>
<linearGradient id="paint1_linear_5_855" x1="17.0005" y1="14" x2="42.0005" y2="26" gradientUnits="userSpaceOnUse">
<stop stop-color="#FFA7A7"/>
<stop offset="1" stop-color="#FF6C6C"/>
</linearGradient>
</defs>
</svg>
